<?xml version="1.0" encoding="utf-8"?>
<!-- Generator: Adobe Illustrator 27.8.1, SVG Export Plug-In . SVG Version: 6.00 Build 0)  -->
<svg version="1.1" id="Layer_1" xmlns="http://www.w3.org/2000/svg" xmlns:xlink="http://www.w3.org/1999/xlink" x="0px" y="0px"
	 viewBox="0 0 24 24" style="enable-background:new 0 0 24 24;" xml:space="preserve">
<style type="text/css">
	.st0{fill:#313639;}
</style>
<g>
	<path class="st0" d="M5.2,4.1C5.2,3.5,5.8,3,6.4,3h13.5C20.5,3,21,3.5,21,4.1s-0.5,1.1-1.1,1.1h-5.6v2.2h1.1c3.1,0,5.6,2.5,5.6,5.6
		v2.2c0,0.6-0.5,1.1-1.1,1.1h-5.6H12c-0.7,0-1.4-0.3-1.8-0.9l-2.5-3.3c-0.1-0.2-0.3-0.3-0.5-0.4L2.4,10C2.1,9.8,1.8,9.5,1.7,9.2
		L0.9,5.9C0.8,5.6,1.1,5.2,1.5,5.2h1c0.4,0,0.7,0.2,0.9,0.5l1.4,1.8H12V5.2H6.4C5.8,5.2,5.2,4.7,5.2,4.1z M22.9,17.9
		c0.4,0.4,0.4,1.2,0,1.6l-0.1,0.1c-0.8,0.8-2,1.3-3.2,1.3H9.7c-0.6,0-1.1-0.5-1.1-1.1c0-0.6,0.5-1.1,1.1-1.1h9.9
		c0.6,0,1.2-0.2,1.6-0.7l0.1-0.1C21.8,17.5,22.5,17.5,22.9,17.9L22.9,17.9z M14.2,14.2h4.5v-1.1c0-1.9-1.5-3.4-3.4-3.4h-1.1V14.2z"
		/>
</g>
</svg>
