<?xml version="1.0" encoding="utf-8"?>
<!-- Generator: Adobe Illustrator 27.8.1, SVG Export Plug-In . SVG Version: 6.00 Build 0)  -->
<svg version="1.1" id="Layer_1" xmlns="http://www.w3.org/2000/svg" xmlns:xlink="http://www.w3.org/1999/xlink" x="0px" y="0px"
	 viewBox="0 0 24 24" style="enable-background:new 0 0 24 24;" xml:space="preserve">
<style type="text/css">
	.st0{fill:#313639;}
</style>
<g>
	<path class="st0" d="M15.1,4.5l2.6-2.6c0.6-0.6,1.5-0.6,2.1,0L22,4.2c0.6,0.6,0.6,1.5,0,2.1l-2.6,2.6l4.2,4.2
		c0.4,0.4,0.4,1.1,0,1.6l-4.5,4.5c-0.4,0.4-1.1,0.4-1.6,0L13.4,15l-0.7,0.7c0.5,1.2,0.8,2.4,0.8,3.8c0,1.5-0.4,2.9-1,4.1
		c-0.2,0.4-0.8,0.5-1.1,0.1l-5-5l-0.8,0.8c0,0.1,0.1,0.3,0.1,0.4c0,0.8-0.7,1.5-1.5,1.5s-1.5-0.7-1.5-1.5s0.7-1.5,1.5-1.5
		c0.1,0,0.3,0,0.4,0.1l0.8-0.8l-5-5c-0.3-0.3-0.3-0.9,0.1-1.1c1.2-0.6,2.6-1,4.1-1c1.4,0,2.6,0.3,3.8,0.8L9,10.6L4.8,6.4
		C4.4,6,4.4,5.3,4.8,4.8l4.5-4.5c0.4-0.4,1.1-0.4,1.6,0L15.1,4.5z M13.5,6.1l-3.4-3.4L7.2,5.6L10.6,9L13.5,6.1z M18.4,16.8l2.9-2.9
		l-3.4-3.4L15,13.4L18.4,16.8L18.4,16.8z"/>
</g>
</svg>
