<?xml version="1.0" encoding="utf-8"?>
<!-- Generator: Adobe Illustrator 27.8.1, SVG Export Plug-In . SVG Version: 6.00 Build 0)  -->
<svg version="1.1" id="Layer_1" xmlns="http://www.w3.org/2000/svg" xmlns:xlink="http://www.w3.org/1999/xlink" x="0px" y="0px"
	 viewBox="0 0 24 24" style="enable-background:new 0 0 24 24;" xml:space="preserve">
<style type="text/css">
	.st0{fill:#313639;}
</style>
<g>
	<path class="st0" d="M16.8,4.9c3.9,0,7.1,3.2,7.1,7.1s-3.2,7.1-7.1,7.1H7.3c-3.9,0-7.1-3.2-7.1-7.1s3.2-7.1,7.1-7.1H16.8z
		 M6.4,11.1H5.2c-0.5,0-0.9,0.4-0.9,0.9s0.4,0.9,0.9,0.9h1.2v1.2c0,0.5,0.4,0.9,0.9,0.9c0.5,0,0.9-0.4,0.9-0.9v-1.2h1.2
		c0.5,0,0.9-0.4,0.9-0.9s-0.4-0.9-0.9-0.9H8.1V9.9C8.1,9.4,7.7,9,7.3,9C6.8,9,6.4,9.4,6.4,9.9V11.1z M15.4,15.1c0.5,0.3,1,0.3,1.5,0
		c0.5-0.3,0.7-0.8,0.7-1.3s-0.3-1-0.7-1.3c-0.5-0.3-1-0.3-1.5,0c-0.5,0.3-0.7,0.8-0.7,1.3S15,14.8,15.4,15.1z M17.2,9.5
		c-0.3,0.5-0.3,1,0,1.5c0.3,0.5,0.8,0.7,1.3,0.7s1-0.3,1.3-0.7c0.3-0.5,0.3-1,0-1.5c-0.3-0.5-0.8-0.7-1.3-0.7S17.5,9,17.2,9.5z"/>
</g>
</svg>
