<?xml version="1.0" encoding="utf-8"?>
<!-- Generator: Adobe Illustrator 27.8.1, SVG Export Plug-In . SVG Version: 6.00 Build 0)  -->
<svg version="1.1" id="Layer_1" xmlns="http://www.w3.org/2000/svg" xmlns:xlink="http://www.w3.org/1999/xlink" x="0px" y="0px"
	 viewBox="0 0 24 24" style="enable-background:new 0 0 24 24;" xml:space="preserve">
<style type="text/css">
	.st0{fill:#313639;}
</style>
<g>
	<path class="st0" d="M10.8,2.5c1.3,0,2.4,1.1,2.4,2.4V12h0.6c1.8,0,3.3,1.5,3.3,3.3v1.2c0,0.5,0.4,0.9,0.9,0.9s0.9-0.4,0.9-0.9
		v-4.6c-1.2-0.4-2.1-1.5-2.1-2.8V7.8c0-0.3,0.3-0.6,0.6-0.6h0.6V5.5c0-0.3,0.3-0.6,0.6-0.6s0.6,0.3,0.6,0.6v1.8h1.2V5.5
		c0-0.3,0.3-0.6,0.6-0.6s0.6,0.3,0.6,0.6v1.8h0.6c0.3,0,0.6,0.3,0.6,0.6V9c0,1.3-0.9,2.5-2.1,2.8v4.6c0,1.5-1.2,2.7-2.7,2.7
		s-2.7-1.2-2.7-2.7v-1.2c0-0.8-0.7-1.5-1.5-1.5h-0.6v5.3c0.7,0,1.2,0.5,1.2,1.2s-0.5,1.2-1.2,1.2H2.5c-0.7,0-1.2-0.5-1.2-1.2
		s0.5-1.2,1.2-1.2V4.9c0-1.3,1.1-2.4,2.4-2.4H10.8z M8.6,5.6L4.5,9.2C4.3,9.3,4.2,9.6,4.3,9.8s0.3,0.4,0.6,0.4H7L6.1,13
		c-0.1,0.3,0,0.5,0.2,0.7c0.2,0.1,0.5,0.1,0.7,0l4.2-3.6c0.2-0.2,0.3-0.4,0.2-0.7S11.1,9,10.8,9H8.7l0.9-2.8c0.1-0.3,0-0.5-0.2-0.7
		C9.1,5.4,8.8,5.4,8.6,5.6z"/>
</g>
</svg>
