<?xml version="1.0" encoding="utf-8"?>
<!-- Generator: Adobe Illustrator 27.8.1, SVG Export Plug-In . SVG Version: 6.00 Build 0)  -->
<svg version="1.1" id="Layer_1" xmlns="http://www.w3.org/2000/svg" xmlns:xlink="http://www.w3.org/1999/xlink" x="0px" y="0px"
	 viewBox="0 0 21 24" style="enable-background:new 0 0 21 24;" xml:space="preserve">
<style type="text/css">
	.st0{fill:#313639;}
</style>
<g>
	<path class="st0" d="M0.2,12.8c0.4-0.7,1.3-1,2-0.7l8.3,4.2l8.3-4.2c0.7-0.4,1.6-0.1,2,0.7s0.1,1.6-0.7,2L13.9,18l6.3,3.2
		c0.7,0.4,1,1.3,0.7,2c-0.4,0.7-1.3,1-2,0.7l-8.3-4.2l-8.3,4.2c-0.7,0.4-1.6,0.1-2-0.7s-0.1-1.6,0.7-2L7.1,18l-6.3-3.2
		C0.1,14.5-0.2,13.6,0.2,12.8z M17.2,6c0,2.1-1.2,3.9-3,5v1c0,0.8-0.7,1.5-1.5,1.5H8.2c-0.8,0-1.5-0.7-1.5-1.5v-1
		c-1.8-1.1-3-2.9-3-5c0-3.3,3-6,6.8-6S17.2,2.7,17.2,6z M7.9,8.2c0.8,0,1.5-0.7,1.5-1.5S8.7,5.2,7.9,5.2S6.4,5.9,6.4,6.8
		S7,8.2,7.9,8.2z M14.6,6.8c0-0.8-0.7-1.5-1.5-1.5s-1.5,0.7-1.5,1.5s0.7,1.5,1.5,1.5S14.6,7.6,14.6,6.8z"/>
</g>
</svg>
