<?xml version="1.0" encoding="utf-8"?>
<!-- Generator: Adobe Illustrator 27.8.1, SVG Export Plug-In . SVG Version: 6.00 Build 0)  -->
<svg version="1.1" id="Layer_1" xmlns="http://www.w3.org/2000/svg" xmlns:xlink="http://www.w3.org/1999/xlink" x="0px" y="0px"
	 viewBox="0 0 24 24" style="enable-background:new 0 0 24 24;" xml:space="preserve">
<style type="text/css">
	.st0{fill:#313639;}
</style>
<g>
	<path class="st0" d="M2.5,4.9c0-1.3,1.1-2.4,2.4-2.4h10.7c1.3,0,2.4,1.1,2.4,2.4v2.4c0,1.3-1.1,2.4-2.4,2.4H4.9
		c-1.3,0-2.4-1.1-2.4-2.4V4.9z M8.4,15.6c0-0.7,0.5-1.2,1.2-1.2v-0.6c0-1.6,1.3-3,3-3h5.3c0.7,0,1.2-0.5,1.2-1.2V8.4V5.1
		c1.4,0.5,2.4,1.8,2.4,3.4v1.2c0,2-1.6,3.6-3.6,3.6h-5.3c-0.3,0-0.6,0.3-0.6,0.6v0.6c0.7,0,1.2,0.5,1.2,1.2v4.8
		c0,0.7-0.5,1.2-1.2,1.2H9.6c-0.7,0-1.2-0.5-1.2-1.2V15.6z"/>
</g>
</svg>
