<?xml version="1.0" encoding="utf-8"?>
<!-- Generator: Adobe Illustrator 27.8.1, SVG Export Plug-In . SVG Version: 6.00 Build 0)  -->
<svg version="1.1" id="Layer_1" xmlns="http://www.w3.org/2000/svg" xmlns:xlink="http://www.w3.org/1999/xlink" x="0px" y="0px"
	 viewBox="0 0 24 24" style="enable-background:new 0 0 24 24;" xml:space="preserve">
<style type="text/css">
	.st0{fill:#313639;}
</style>
<g>
	<path class="st0" d="M16.3,1.5c0.2,0.1,0.4,0.3,0.4,0.5l0.8,4.4L22,7.3c0.2,0,0.4,0.2,0.5,0.4s0.1,0.4-0.1,0.6L19.8,12l2.6,3.7
		c0.1,0.2,0.2,0.4,0.1,0.6s-0.3,0.4-0.5,0.4l-4.4,0.8L16.7,22c0,0.2-0.2,0.4-0.4,0.5c-0.2,0.1-0.4,0.1-0.6-0.1L12,19.8l-3.7,2.6
		c-0.2,0.1-0.4,0.2-0.6,0.1c-0.2-0.1-0.4-0.3-0.4-0.5l-0.8-4.4L2,16.7c-0.2,0-0.4-0.2-0.5-0.4c-0.1-0.2-0.1-0.4,0.1-0.6L4.2,12
		L1.6,8.3C1.5,8.1,1.5,7.9,1.5,7.7C1.6,7.5,1.8,7.3,2,7.3l4.4-0.8L7.3,2c0-0.2,0.2-0.4,0.4-0.5c0.2-0.1,0.4-0.1,0.6,0.1L12,4.2
		l3.7-2.6C15.9,1.5,16.1,1.5,16.3,1.5z M17.3,12c0-1.9-1-3.6-2.6-4.5C13,6.5,11,6.5,9.4,7.4C7.8,8.4,6.8,10.1,6.8,12s1,3.6,2.6,4.5
		c1.6,0.9,3.6,0.9,5.2,0C16.2,15.6,17.3,13.9,17.3,12z M8.1,12c0-1.4,0.8-2.7,2-3.4c1.2-0.7,2.7-0.7,3.9,0c1.2,0.7,2,2,2,3.4
		s-0.8,2.7-2,3.4c-1.2,0.7-2.7,0.7-3.9,0C8.8,14.7,8.1,13.4,8.1,12z"/>
</g>
</svg>
