<?xml version="1.0" encoding="utf-8"?>
<!-- Generator: Adobe Illustrator 27.8.1, SVG Export Plug-In . SVG Version: 6.00 Build 0)  -->
<svg version="1.1" id="Layer_1" xmlns="http://www.w3.org/2000/svg" xmlns:xlink="http://www.w3.org/1999/xlink" x="0px" y="0px"
	 viewBox="0 0 24 24" style="enable-background:new 0 0 24 24;" xml:space="preserve">
<style type="text/css">
	.st0{fill:#313639;}
</style>
<g>
	<path class="st0" d="M18.6,8.1c0.7,0,1.3,0.6,1.3,1.3s-0.6,1.3-1.3,1.3V12c0,3.2-2.3,5.8-5.3,6.4v2.8c0,0.7-0.6,1.3-1.3,1.3
		s-1.3-0.6-1.3-1.3v-2.8c-3-0.6-5.2-3.3-5.2-6.4v-1.3c-0.7,0-1.3-0.6-1.3-1.3s0.6-1.3,1.3-1.3H18.6z M9.4,2.8v3.9H6.8V2.8
		c0-0.7,0.6-1.3,1.3-1.3S9.4,2.1,9.4,2.8z M17.3,2.8v3.9h-2.6V2.8c0-0.7,0.6-1.3,1.3-1.3C16.7,1.5,17.3,2.1,17.3,2.8z"/>
</g>
</svg>
