<?xml version="1.0" encoding="utf-8"?>
<!-- Generator: Adobe Illustrator 27.8.1, SVG Export Plug-In . SVG Version: 6.00 Build 0)  -->
<svg version="1.1" id="Layer_1" xmlns="http://www.w3.org/2000/svg" xmlns:xlink="http://www.w3.org/1999/xlink" x="0px" y="0px"
	 viewBox="0 0 36 36" style="enable-background:new 0 0 36 36;" xml:space="preserve">
<style type="text/css">
	.st0{fill:#313639;}
	.st1{fill:#FFFFFF;}
</style>
<path class="st0" d="M29.3,12.3c-0.3-1-1.1-1.8-2.1-2.1C25.4,9.7,18,9.7,18,9.7s-7.4,0-9.2,0.5c-1,0.3-1.8,1.1-2.1,2.1
	C6.2,14.2,6.2,18,6.2,18s0,3.9,0.5,5.7c0.3,1,1.1,1.8,2.1,2.1c1.8,0.5,9.2,0.5,9.2,0.5s7.4,0,9.2-0.5c1-0.3,1.8-1,2.1-2.1
	c0.5-1.9,0.5-5.7,0.5-5.7S29.8,14.2,29.3,12.3z M15.6,21.5v-7l6.2,3.5L15.6,21.5z"/>
<g>
	<path class="st0" d="M18,1.9c9,0,16.2,7.3,16.2,16.2S27,34.4,18,34.4S1.8,27.1,1.8,18.1S9,1.9,18,1.9 M18,0.1c-9.9,0-18,8.1-18,18
		c0,9.9,8.1,18,18,18c9.9,0,18-8.1,18-18C36,8.2,27.9,0.1,18,0.1L18,0.1z"/>
</g>
</svg>
