<?xml version="1.0" encoding="utf-8"?>
<!-- Generator: Adobe Illustrator 27.8.1, SVG Export Plug-In . SVG Version: 6.00 Build 0)  -->
<svg version="1.1" id="Layer_1" xmlns="http://www.w3.org/2000/svg" xmlns:xlink="http://www.w3.org/1999/xlink" x="0px" y="0px"
	 viewBox="0 0 24 24" style="enable-background:new 0 0 24 24;" xml:space="preserve">
<style type="text/css">
	.st0{fill:#313639;}
</style>
<g>
	<path class="st0" d="M8.2,20.8c-0.6,0.5-1.4,0.7-2.1,0.7c-2,0-3.6-1.6-3.6-3.6c0-1.1,0.5-2.2,1.4-2.9l2.4-1.8c0.6-0.4,1-1.2,1-1.9
		V6.1h5.9v5.3c0,0.4-0.2,0.7-0.5,1l-2.4,1.8c-1.2,0.9-1.9,2.3-1.9,3.8c0,0.8,0.2,1.6,0.6,2.2L8.2,20.8z M7.2,4.3
		c0-1,0.8-1.8,1.8-1.8h3.6c0.4,0,0.7,0.1,1,0.3c-0.3,0.4-0.4,0.9-0.4,1.5v0.6H7.2V4.3z M21.5,6.1v7.7c0,1.5-0.7,2.9-1.9,3.8
		l-4.3,3.2c-0.6,0.5-1.4,0.7-2.1,0.7c-2,0-3.6-1.6-3.6-3.6c0-1.1,0.5-2.2,1.4-2.9l2.4-1.8c0.6-0.4,1-1.2,1-1.9V6.1H21.5z M14.4,4.9
		V4.3c0-1,0.8-1.8,1.8-1.8h3.6c1,0,1.8,0.8,1.8,1.8v0.6H14.4z"/>
</g>
</svg>
