<?xml version="1.0" encoding="utf-8"?>
<!-- Generator: Adobe Illustrator 27.8.1, SVG Export Plug-In . SVG Version: 6.00 Build 0)  -->
<svg version="1.1" id="Layer_1" xmlns="http://www.w3.org/2000/svg" xmlns:xlink="http://www.w3.org/1999/xlink" x="0px" y="0px"
	 viewBox="0 0 24 24" style="enable-background:new 0 0 24 24;" xml:space="preserve">
<style type="text/css">
	.st0{fill:#313639;}
</style>
<g>
	<path class="st0" d="M5.7,4.1L4.8,8.6H1.5c-0.4,0-0.7-0.3-0.7-0.7c0-0.1,0-0.1,0-0.2l0.9-3c0.1-0.4,0.4-0.6,0.8-0.6H5.7z
		 M10.9,14.2c0,1.7,0.7,3.3,1.7,4.6H5.2c0,0.6-0.5,1.1-1.1,1.1S3,19.4,3,18.7l-0.7-5.6H1.9c-0.6,0-1.1-0.5-1.1-1.1s0.5-1.1,1.1-1.1
		H2L1.9,9.7h10.7c-0.2,0.2-0.3,0.4-0.4,0.7C11.4,11.6,10.9,12.9,10.9,14.2z M5.9,8.6l0.9-4.5h3.5v4.5H5.9z M11.4,4.1h3.5l0.5,2.5
		c-0.1,0-0.1,0.1-0.2,0.1C14.6,7.4,14,8,13.5,8.6h-2V4.1z M16.7,7.6c0.7,0.6,1.3,1.3,2,2c0.3-0.3,0.6-0.7,0.9-1
		c0.2-0.2,0.5-0.2,0.7,0c0.9,0.8,1.6,1.8,2.1,2.9c0.5,1,0.9,2.1,0.9,2.8c0,3.1-2.5,5.6-5.6,5.6c-3.2,0-5.6-2.5-5.6-5.6
		c0-0.9,0.4-2.1,1.1-3.3c0.7-1.1,1.7-2.3,2.9-3.4c0.1-0.1,0.2-0.1,0.4-0.1C16.5,7.5,16.6,7.5,16.7,7.6L16.7,7.6z M20.1,13.7
		c-0.1-0.1-0.1-0.3-0.2-0.4l-1.3,1.5c0,0-2-2.6-2.2-2.8c-1.1,1.3-1.6,2-1.6,2.9c0,1.7,1.3,2.7,2.8,2.7c0.6,0,1.2-0.2,1.7-0.5
		C20.4,16.3,20.7,14.9,20.1,13.7z M18.8,7.8c-0.1,0.1-0.1,0.1-0.2,0.2c-0.4-0.4-0.8-0.8-1.2-1.2c-0.3-0.2-0.6-0.4-0.9-0.4l-0.5-2.3
		h3.2c0.4,0,0.7,0.2,0.8,0.6l0.9,3c0,0,0,0,0,0.1C20.4,7.2,19.4,7.2,18.8,7.8L18.8,7.8z"/>
</g>
</svg>
