<?xml version="1.0" encoding="utf-8"?>
<!-- Generator: Adobe Illustrator 27.8.1, SVG Export Plug-In . SVG Version: 6.00 Build 0)  -->
<svg version="1.1" id="Layer_1" xmlns="http://www.w3.org/2000/svg" xmlns:xlink="http://www.w3.org/1999/xlink" x="0px" y="0px"
	 viewBox="0 0 36 36" style="enable-background:new 0 0 36 36;" xml:space="preserve">
<style type="text/css">
	.st0{fill:#313639;}
	.st1{fill:#FFFFFF;}
</style>
<path class="st0" d="M24.1,10.2h-1.8c-1.8,0-2.4,1.1-2.4,2.3v2.7h4.1l-0.7,4.2h-3.4v10.2h-4.6V19.5h-3.7v-4.2h3.7V12
	c0-3.7,2.2-5.7,5.5-5.7c1.6,0,3.3,0.3,3.3,0.3V10.2z"/>
<g>
	<path class="st0" d="M18,1.9c9,0,16.2,7.3,16.2,16.2S27,34.4,18,34.4S1.8,27.1,1.8,18.1S9,1.9,18,1.9 M18,0.1c-9.9,0-18,8.1-18,18
		c0,9.9,8.1,18,18,18s18-8.1,18-18C36,8.2,27.9,0.1,18,0.1L18,0.1z"/>
</g>
</svg>
