<?xml version="1.0" encoding="utf-8"?>
<!-- Generator: Adobe Illustrator 27.8.1, SVG Export Plug-In . SVG Version: 6.00 Build 0)  -->
<svg version="1.1" id="Layer_1" xmlns="http://www.w3.org/2000/svg" xmlns:xlink="http://www.w3.org/1999/xlink" x="0px" y="0px"
	 viewBox="0 0 36 36" style="enable-background:new 0 0 36 36;" xml:space="preserve">
<style type="text/css">
	.st0{fill:#313639;}
	.st1{fill:#FFFFFF;}
</style>
<path class="st0" d="M12.2,28.5H7.8v-14h4.4V28.5z M10,12.6c-1.4,0-2.5-1.2-2.5-2.5c0-0.9,0.5-1.7,1.3-2.2c0.8-0.5,1.7-0.5,2.5,0
	c0.8,0.5,1.3,1.3,1.3,2.2C12.5,11.4,11.4,12.6,10,12.6z M28.5,28.5L28.5,28.5h-4.3v-6.8c0-1.6,0-3.7-2.3-3.7c-2.3,0-2.6,1.8-2.6,3.6
	v6.9h-4.3v-14h4.2v1.9h0.1c0.6-1.1,2-2.3,4.1-2.3c4.4,0,5.2,2.9,5.2,6.7V28.5z"/>
<g>
	<path class="st0" d="M18,1.9c9,0,16.2,7.3,16.2,16.2S27,34.4,18,34.4S1.7,27.1,1.7,18.1S9,1.9,18,1.9 M18,0.1c-9.9,0-18,8.1-18,18
		c0,9.9,8.1,18,18,18c9.9,0,18-8.1,18-18C36,8.2,27.9,0.1,18,0.1L18,0.1z"/>
</g>
</svg>
