<?xml version="1.0" encoding="utf-8"?>
<!-- Generator: Adobe Illustrator 27.8.1, SVG Export Plug-In . SVG Version: 6.00 Build 0)  -->
<svg version="1.1" id="Layer_1" xmlns="http://www.w3.org/2000/svg" xmlns:xlink="http://www.w3.org/1999/xlink" x="0px" y="0px"
	 viewBox="0 0 24 24" style="enable-background:new 0 0 24 24;" xml:space="preserve">
<style type="text/css">
	.st0{fill:#313639;}
</style>
<g>
	<path class="st0" d="M15.6,6.1c0,0.5-0.1,1-0.3,1.5l2,3.4c-0.9,0.9-2,1.6-3.3,2L12,9.6L9.5,14c0.8,0.3,1.6,0.4,2.5,0.4
		c2.6,0,5-1.2,6.5-3.1c0.4-0.5,1.2-0.6,1.7-0.2c0.5,0.4,0.6,1.2,0.2,1.7c-2,2.4-5,4-8.3,4c-1.3,0-2.6-0.2-3.7-0.7l-2.1,3.6
		C6,20,5.7,20.2,5.4,20.4l-2.1,1c-0.2,0.1-0.4,0.1-0.6,0c-0.2-0.1-0.3-0.3-0.3-0.5v-2.1c0-0.3,0.1-0.6,0.2-0.9L5,14.1
		c-0.5-0.4-0.9-0.9-1.3-1.4c-0.4-0.5-0.3-1.3,0.2-1.7c0.5-0.4,1.3-0.3,1.7,0.2C5.7,11.5,6,11.8,6.2,12l2.6-4.4
		c-0.2-0.5-0.3-1-0.3-1.5c0-2,1.6-3.6,3.6-3.6S15.6,4.1,15.6,6.1z M12,7.2c0.7,0,1.2-0.5,1.2-1.2S12.7,4.9,12,4.9
		c-0.7,0-1.2,0.5-1.2,1.2S11.3,7.2,12,7.2z M16.3,17.1c1.2-0.5,2.3-1.1,3.3-2l1.6,2.8c0.2,0.3,0.2,0.6,0.2,0.9v2.1
		c0,0.2-0.1,0.4-0.3,0.5c-0.2,0.1-0.4,0.1-0.6,0l-2.1-1c-0.3-0.2-0.6-0.4-0.7-0.7L16.3,17.1z"/>
</g>
</svg>
