<?xml version="1.0" encoding="utf-8"?>
<!-- Generator: Adobe Illustrator 27.8.1, SVG Export Plug-In . SVG Version: 6.00 Build 0)  -->
<svg version="1.1" id="Layer_1" xmlns="http://www.w3.org/2000/svg" xmlns:xlink="http://www.w3.org/1999/xlink" x="0px" y="0px"
	 viewBox="0 0 240 36" style="enable-background:new 0 0 240 36;" xml:space="preserve">
<style type="text/css">
	.st0{fill:#313639;}
	.st1{fill:#FFFFFF;}
</style>
<path class="st0" d="M49,25.9c-0.8,0-1.4,0.6-1.4,1.4s0.6,1.4,1.4,1.4c0.8,0,1.4-0.6,1.4-1.4S49.7,25.9,49,25.9z"/>
<path class="st0" d="M36.7,25.9H28c-0.8,0-1.4,0.6-1.4,1.4s0.6,1.4,1.4,1.4h8.7c0.8,0,1.4-0.6,1.4-1.4
	C38.1,26.5,37.4,25.9,36.7,25.9z"/>
<path class="st0" d="M57.6,23.6V21c-0.6,0.2-1.1,0.2-1.3,0.2c-0.4,0-0.5-0.2-0.5-1.1l0-4.8h1.7v-2.5h-1.7V9.4L53,10.5v2.3h-1.1v2.5
	H53v4.8c0,2.4,1.1,3.7,3,3.7C56.5,23.9,56.9,23.8,57.6,23.6z"/>
<circle class="st0" cx="56.5" cy="27.2" r="1.4"/>
<path class="st0" d="M23.3,20.2v-4.8h1.7v-2.5h-1.7V9.4l-2.8,1.1v2.3h-1.1v2.5h1.1v4.8c0,2.4,1.1,3.7,3,3.7c0.5,0,0.9-0.1,1.6-0.3
	V21c-0.6,0.2-1.1,0.2-1.3,0.2C23.4,21.2,23.3,21,23.3,20.2z"/>
<path class="st0" d="M86.3,10.2c0.8,0,1.4-0.6,1.4-1.4S87,7.4,86.3,7.4c-0.8,0-1.4,0.6-1.4,1.4S85.5,10.2,86.3,10.2z"/>
<circle class="st0" cx="93.9" cy="8.8" r="1.4"/>
<path class="st0" d="M101.6,10.2c0.8,0,1.4-0.6,1.4-1.4s-0.6-1.4-1.4-1.4c-0.8,0-1.4,0.6-1.4,1.4S100.8,10.2,101.6,10.2z"/>
<path class="st0" d="M22.8,25.9c-0.8,0-1.4,0.6-1.4,1.4s0.6,1.4,1.4,1.4c0.8,0,1.4-0.6,1.4-1.4S23.5,25.9,22.8,25.9z"/>
<path class="st0" d="M61.7,10.7L61.7,10.7c0,0,0.6-1.3,0-2.3C60.9,7.2,60,7.4,60,7.4c-1,0-1.8,0.8-1.8,1.7c0,1,0.8,1.8,1.8,1.8
	c0.1,0-0.1,1-0.5,1.4c0.1,0,0.3,0,0.4-0.1C60.7,11.9,61.3,11.4,61.7,10.7z"/>
<path class="st0" d="M29.4,23.7v-5.6c0-2,1.2-3.2,3-3.2c1.7,0,2.9,1.3,2.9,3.2v5.6c0,0,2.8,0,2.8,0v-5.6c0-3.2-2.5-5.8-5.7-5.8
	c-1.1,0-2.2,0.3-3.1,0.8V7.4h-2.8v16.3C26.6,23.7,29.4,23.7,29.4,23.7z"/>
<circle class="st0" cx="78.6" cy="8.8" r="1.4"/>
<polygon class="st0" points="133.3,20.1 140.1,20.1 140.1,15.4 133.3,15.4 133.3,12.1 141.2,12.1 141.2,7.4 128.2,7.4 128.2,28.4 
	141.2,28.4 141.2,23.6 133.3,23.6 "/>
<path class="st0" d="M207.8,23.9c3.2,0,5.7-2.5,5.7-5.8c0-3.2-2.5-5.8-5.7-5.8c-3.3,0-5.8,2.5-5.8,5.7
	C202.1,21.4,204.6,23.9,207.8,23.9z M207.9,14.9c1.7,0,2.9,1.3,2.9,3.2c0,1.9-1.2,3.3-2.9,3.3c-1.8,0-3-1.3-3-3.3
	C204.9,16.2,206.1,14.9,207.9,14.9z"/>
<circle class="st0" cx="203.8" cy="27.2" r="1.4"/>
<path class="st0" d="M217.4,25.9h-8.7c-0.8,0-1.4,0.6-1.4,1.4c0,0.8,0.6,1.4,1.4,1.4h8.7c0.8,0,1.4-0.6,1.4-1.4
	C218.8,26.5,218.1,25.9,217.4,25.9z"/>
<path class="st0" d="M218.8,12.8v-1.7c0-0.9,0.2-1.2,0.8-1.2c0.2,0,0.5,0.1,1,0.2V7.6c-0.5-0.1-1.1-0.2-1.6-0.2
	c-2,0-3.1,1.3-3.1,3.7v1.7h-2v2.5h2v8.3h2.8v-8.3h1.9v-2.5C220.6,12.8,218.8,12.8,218.8,12.8z"/>
<polygon class="st0" points="102.6,20.6 96.8,12.8 91,12.8 91,28.4 96.1,28.4 96.1,20.6 101.9,28.4 107.7,28.4 107.7,12.8 
	102.6,12.8 "/>
<path class="st0" d="M84.1,20.3c0,1.8-1.4,3.2-3.2,3.2c-1.8,0-3.2-1.4-3.2-3.2v-7.4h-5.1v7.4c0,4.6,3.7,8.4,8.4,8.4
	c4.6,0,8.4-3.7,8.4-8.4v-7.4h-5.1V20.3z"/>
<path class="st0" d="M64.2,25.9c-0.8,0-1.4,0.6-1.4,1.4s0.6,1.4,1.4,1.4c0.8,0,1.4-0.6,1.4-1.4S64.9,25.9,64.2,25.9z"/>
<path class="st0" d="M66.3,17.1l-1-0.4c-1.2-0.5-1.4-0.6-1.4-1.1c0-0.5,0.4-0.9,1.1-0.9c0.6,0,1,0.3,1.6,1.2l2.2-1.1
	c-0.9-1.8-2.1-2.6-3.8-2.6c-2.2,0-3.8,1.5-3.8,3.4c0,1.4,0.8,2.4,2.4,3l1.1,0.4c1.1,0.4,1.4,0.6,1.4,1.1c0,0.7-0.5,1.1-1.2,1.1
	c-0.9,0-1.3-0.4-2-1.8l-2.3,0.9c0.3,0.9,0.5,1.2,0.9,1.7c0.8,1.1,2,1.7,3.4,1.7c2.3,0,4.1-1.6,4.1-3.7C69,18.7,68.2,17.8,66.3,17.1z
	"/>
<polygon class="st0" points="121.3,15.4 114.7,15.4 114.7,7.4 109.6,7.4 109.6,28.4 114.7,28.4 114.7,20.1 121.3,20.1 121.3,28.4 
	126.4,28.4 126.4,7.4 121.3,7.4 "/>
<path class="st0" d="M175.7,19.9c1.6-1.2,2.6-3.3,2.6-5.4c0-2.1-0.9-4-2.4-5.3c-1.5-1.3-3.2-1.8-6.1-1.8h-5.4v21h5.1v-7h0.2l0.8,0
	h0.1h0.1l3.9,7h5.8L175.7,19.9z M170.1,16.7h-0.5v-4.6h0.5c2.3,0,3.2,0.7,3.2,2.4C173.3,16.1,172.4,16.7,170.1,16.7z"/>
<path class="st0" d="M186.8,7.4h-5.4v21h5.4c7,0,11.6-4.1,11.6-10.5C198.4,11.5,193.8,7.4,186.8,7.4z M186.9,23.6h-0.3V12.1h0.3
	c4,0,6.4,2.1,6.4,5.7C193.2,21.5,190.9,23.6,186.9,23.6z"/>
<path class="st0" d="M155.7,7.4H150l-7.9,21h5.4l1.5-4.4l7.6,0l1.5,4.4h5.5L155.7,7.4z M150.7,19.3l2.2-6.4l2.2,6.4H150.7z"/>
<path class="st0" d="M47.8,12.8L47.8,12.8v0.3c-0.8-0.5-1.8-0.8-2.9-0.8c-3.3,0-5.8,2.5-5.8,5.7c0,3.3,2.5,5.8,5.8,5.8
	c1.1,0,2.1-0.3,3-0.8v0.7h2.8V12.8H47.8z M44.9,21.3c-1.8,0-3-1.3-3-3.3c0-2,1.2-3.2,3-3.2c1.7,0,2.9,1.3,2.9,3.2
	C47.8,20,46.6,21.3,44.9,21.3z"/>
<g>
	<path class="st0" d="M222,1.9c9,0,16.2,7.3,16.2,16.2S231,34.4,222,34.4H18c-9,0-16.2-7.3-16.2-16.2S9,1.9,18,1.9H222 M222,0.1H18
		c-9.9,0-18,8.1-18,18c0,9.9,8.1,18,18,18h204c9.9,0,18-8.1,18-18C240,8.2,231.9,0.1,222,0.1L222,0.1z"/>
</g>
</svg>
