<?xml version="1.0" encoding="utf-8"?>
<!-- Generator: Adobe Illustrator 27.8.1, SVG Export Plug-In . SVG Version: 6.00 Build 0)  -->
<svg version="1.1" id="Layer_1" xmlns="http://www.w3.org/2000/svg" xmlns:xlink="http://www.w3.org/1999/xlink" x="0px" y="0px"
	 viewBox="0 0 36 36" style="enable-background:new 0 0 36 36;" xml:space="preserve">
<style type="text/css">
	.st0{fill:#313639;}
	.st1{fill:#FFFFFF;}
</style>
<path class="st0" d="M20.3,16.5l7.4-8.4h-3.4l-5.6,6.4L14,8.1H7l8.3,10.9l-7.9,9h3.4l6.1-6.9l5.3,6.9H29L20.3,16.5z M10.9,10h2
	l12.1,16h-1.9L10.9,10z"/>
<g>
	<path class="st0" d="M18,1.9c9,0,16.2,7.3,16.2,16.2S27,34.4,18,34.4S1.8,27.1,1.8,18.1S9,1.9,18,1.9 M18,0.1c-9.9,0-18,8.1-18,18
		c0,9.9,8.1,18,18,18c9.9,0,18-8.1,18-18C36,8.2,27.9,0.1,18,0.1L18,0.1z"/>
</g>
</svg>
