<?xml version="1.0" encoding="utf-8"?>
<!-- Generator: Adobe Illustrator 27.8.1, SVG Export Plug-In . SVG Version: 6.00 Build 0)  -->
<svg version="1.1" id="Layer_1" xmlns="http://www.w3.org/2000/svg" xmlns:xlink="http://www.w3.org/1999/xlink" x="0px" y="0px"
	 viewBox="0 0 36 36" style="enable-background:new 0 0 36 36;" xml:space="preserve">
<style type="text/css">
	.st0{fill:#313639;}
	.st1{fill:#FFFFFF;}
</style>
<path class="st0" d="M19.8,23.2c-1.2,0-2.7-0.6-3.2-1.7c-1.1,4.2-1,4.9-3.3,8.1c-0.2,0.1-0.2,0.1-0.3-0.1c-0.1-0.9-0.2-1.8-0.2-2.6
	c0-2.9,1.3-7,2-9.8c-0.4-0.7-0.5-1.6-0.5-2.4c0-3.8,4.4-4.3,4.4-1.2c0,1.8-1.2,3.5-1.2,5.3c0,1.2,1,2.1,2.2,2.1
	c3.2,0,4.2-4.7,4.2-7.2c0-3.3-2.4-5.1-5.6-5.1c-3.7,0-6.6,2.7-6.6,6.4c0,1.8,1.1,2.7,1.1,3.2c0,0.4-0.3,1.7-0.7,1.7
	c-1.1,0-3-1.9-3-5.2c0-5.2,4.8-8.4,9.6-8.4c4.4,0,8.4,3,8.4,7.7C27,18.4,24.8,23.2,19.8,23.2z"/>
<g>
	<path class="st0" d="M18,1.9c9,0,16.2,7.3,16.2,16.2S27,34.4,18,34.4S1.7,27.1,1.7,18.1S9,1.9,18,1.9 M18,0.1c-9.9,0-18,8.1-18,18
		c0,9.9,8.1,18,18,18c9.9,0,18-8.1,18-18C36,8.2,27.9,0.1,18,0.1L18,0.1z"/>
</g>
</svg>
