<?xml version="1.0" encoding="utf-8"?>
<!-- Generator: Adobe Illustrator 27.8.1, SVG Export Plug-In . SVG Version: 6.00 Build 0)  -->
<svg version="1.1" id="Layer_1" xmlns="http://www.w3.org/2000/svg" xmlns:xlink="http://www.w3.org/1999/xlink" x="0px" y="0px"
	 viewBox="0 0 155 40.6" style="enable-background:new 0 0 155 40.6;" xml:space="preserve">
<style type="text/css">
	.st0{fill:#313639;}
</style>
<g>
	<g>
		<g>
			<path class="st0" d="M17.1,0H0v40.6L17.1,0z"/>
			<path class="st0" d="M29.1,0h17.1v40.6L29.1,0z"/>
			<path class="st0" d="M23.1,15L34,40.6h-7.1l-3.2-8.2h-8L23.1,15z"/>
			<path class="st0" d="M74,25.8l2,5.7c0.1,0.1,0.2,0.2,0.3,0.2h3.9c0.2,0,0.2-0.1,0.2-0.3l-8-22.1c0-0.2-0.1-0.2-0.2-0.2h-4.8
				c-0.1,0-0.2,0.1-0.2,0.2c-0.1,1.2-0.2,1.5-0.3,1.9l-7.1,20.2c0,0.2,0,0.3,0.2,0.3h3.5c0.2,0,0.3-0.1,0.4-0.3l1.9-5.7H74z
				 M66.9,22.1c1-3.1,2.4-7.2,3-9.5h0c0.7,2.4,2.3,7.2,3,9.5H66.9z"/>
			<path class="st0" d="M90.7,32.1c2.1,0,4.3-0.4,6.5-1.3c0.2-0.1,0.2-0.1,0.2-0.3c-0.1-0.6-0.1-1.5-0.1-2.2V7.5
				c0-0.1,0-0.2-0.2-0.2h-3.8c-0.1,0-0.2,0.1-0.2,0.2v7c-0.6-0.1-1-0.1-1.5-0.1c-6.1,0-9.8,4-9.8,9C81.9,29.2,85.7,32.1,90.7,32.1z
				 M93.2,28.3c-0.6,0.2-1.3,0.3-2,0.3c-2.8,0-5-1.5-5-5.3c0-3.3,2.3-5.3,5.4-5.3c0.6,0,1.2,0.1,1.6,0.2V28.3z"/>
			<path class="st0" d="M109.5,14.5c-5.2,0-8.4,4-8.4,8.8c0,4.4,2.6,8.8,8.3,8.8c4.9,0,8.3-3.6,8.3-8.9
				C117.8,18.5,114.9,14.5,109.5,14.5z M109.3,17.9c2.9,0,4.2,2.5,4.2,5.4c0,3.5-1.8,5.3-4,5.3c-2.6,0-4.2-2.2-4.2-5.4
				C105.3,20,107,17.9,109.3,17.9z"/>
			<path class="st0" d="M121.7,7.3c-0.1,0-0.2,0.1-0.2,0.2V31c0,0.1,0.1,0.3,0.2,0.3c1.7,0.5,3.4,0.8,5.2,0.8
				c5.1,0,10.1-3.2,10.1-9.5c0-4.6-3.2-8.1-8.2-8.1c-1.1,0-2.2,0.2-3.1,0.5l0-7.4c0-0.2-0.1-0.3-0.3-0.3H121.7z M132.7,23
				c0,3.8-2.6,5.6-5.5,5.6c-0.6,0-1.1,0-1.6-0.2v-10c0.5-0.2,1.2-0.4,2.4-0.4C130.8,18,132.7,19.7,132.7,23z"/>
			<path class="st0" d="M151,24.2c1.7,0,3.1,0,3.6-0.1c0.2,0,0.2-0.1,0.3-0.2c0.1-0.4,0.1-1.2,0.1-2.1c0-3.3-2-7.3-7.1-7.3
				c-5.2,0-8.1,4.2-8.1,9c0,4.2,2.2,8.6,8.5,8.6c2.4,0,3.9-0.4,5.2-1c0.1-0.1,0.2-0.2,0.2-0.4v-2.9c0-0.2-0.1-0.2-0.2-0.1
				c-1.3,0.6-2.7,0.8-4.3,0.8c-3.5,0-5.1-1.9-5.2-4.3H151z M144,21.3c0.3-1.7,1.3-3.5,3.7-3.5c2.6,0,3.3,2.2,3.3,3.2
				c0,0,0,0.2,0,0.3c-0.1,0-0.6,0-1.9,0H144z"/>
		</g>
	</g>
</g>
</svg>
