<?xml version="1.0" encoding="utf-8"?>
<!-- Generator: Adobe Illustrator 27.8.1, SVG Export Plug-In . SVG Version: 6.00 Build 0)  -->
<svg version="1.1" id="a" xmlns="http://www.w3.org/2000/svg" xmlns:xlink="http://www.w3.org/1999/xlink" x="0px" y="0px"
	 viewBox="0 0 980 150" style="enable-background:new 0 0 980 150;" xml:space="preserve">
<style type="text/css">
	.st0{fill:url(#SVGID_1_);}
	.st1{fill:url(#SVGID_00000062912937226712586410000012885719258139238042_);}
	.st2{fill:url(#SVGID_00000163753185308642834710000011265681846138834082_);}
	.st3{fill:#FFFFFF;}
	.st4{fill:#313639;}
</style>
<radialGradient id="SVGID_1_" cx="14.29" cy="121.23" r="69.3" gradientTransform="matrix(1 0 0 -1 0 152)" gradientUnits="userSpaceOnUse">
	<stop  offset="0" style="stop-color:#981E66"/>
	<stop  offset="0.38" style="stop-color:#941E66"/>
	<stop  offset="0.68" style="stop-color:#8A1E66"/>
	<stop  offset="0.96" style="stop-color:#791E66"/>
	<stop  offset="1" style="stop-color:#771E66"/>
</radialGradient>
<path class="st0" d="M18.6,74.9c-6.4-6.7-10.1-16-9.3-26.1c1.3-16.7,14.9-30.1,31.6-31.2C61.4,16.2,78.3,33,77.2,53.4
	C76.2,70,63.1,83.7,46.5,85.3c-4.2,0.4-8.3,0-12.1-1c-1.5-0.4-3.1-0.2-4.5,0.5L22.1,89c-1.8,1-4-0.7-3.5-2.7l1.4-5.8
	C20.6,78.5,20,76.4,18.6,74.9L18.6,74.9z"/>
<radialGradient id="SVGID_00000054970147670405435200000000100305669137424025_" cx="132.62" cy="115.39" r="98.9" gradientTransform="matrix(1 0 0 -1 0 152)" gradientUnits="userSpaceOnUse">
	<stop  offset="0" style="stop-color:#EC8A00"/>
	<stop  offset="0.35" style="stop-color:#EC8600"/>
	<stop  offset="0.62" style="stop-color:#EC7C00"/>
	<stop  offset="0.88" style="stop-color:#EC6B00"/>
	<stop  offset="1" style="stop-color:#EC6100"/>
</radialGradient>
<path style="fill:url(#SVGID_00000054970147670405435200000000100305669137424025_);" d="M125.3,95.3c9.2-9.7,14.6-23.1,13.4-37.8
	c-1.9-24.2-21.6-43.6-45.7-45.2c-29.6-1.9-54,22.3-52.4,51.8C41.9,88.2,61,108.1,85,110.4c6.1,0.6,12,0,17.5-1.5
	c2.2-0.6,4.5-0.3,6.5,0.7l11.2,6.1c2.7,1.4,5.8-1,5-3.9l-2.1-8.4C122.5,100.5,123.2,97.5,125.3,95.3L125.3,95.3z"/>
<radialGradient id="SVGID_00000141449407326711814910000008960931951375776942_" cx="61.53" cy="130.48" r="66.09" gradientTransform="matrix(1 0 0 -1 0 152)" gradientUnits="userSpaceOnUse">
	<stop  offset="0" style="stop-color:#00778A"/>
	<stop  offset="0.38" style="stop-color:#00738A"/>
	<stop  offset="0.69" style="stop-color:#00698A"/>
	<stop  offset="0.97" style="stop-color:#00598A"/>
	<stop  offset="1" style="stop-color:#00578A"/>
</radialGradient>
<path style="fill:url(#SVGID_00000141449407326711814910000008960931951375776942_);" d="M40.6,64.2c0.4,7.6,2.6,14.8,6.1,21.1
	c16.5-1.7,29.5-15.4,30.4-31.9c0.7-13.4-6.2-25.1-16.9-31.3C47.6,31.6,39.7,47,40.6,64.2L40.6,64.2z"/>
<path class="st3" d="M58,46.2h38.2c2.4,0,4.3-1.9,4.3-4.3s-1.9-4.3-4.3-4.3H58c-2.4,0-4.3,1.9-4.3,4.3S55.6,46.2,58,46.2z"/>
<path class="st3" d="M105.7,76.4H73.8c-2.4,0-4.3,1.9-4.3,4.3s1.9,4.3,4.3,4.3h31.9c2.4,0,4.3-1.9,4.3-4.3S108,76.4,105.7,76.4z"/>
<circle class="st3" cx="44.6" cy="41.9" r="4.3"/>
<circle class="st3" cx="40.5" cy="61.3" r="4.3"/>
<circle class="st3" cx="28.2" cy="61.3" r="4.3"/>
<circle class="st3" cx="52.8" cy="61.3" r="4.3"/>
<circle class="st3" cx="75.8" cy="61.3" r="4.3"/>
<circle class="st3" cx="60.4" cy="80.8" r="4.3"/>
<path class="st3" d="M84.3,61.3c0,2.4,1.9,4.3,4.3,4.3s4.3-1.9,4.3-4.3S91,57,88.6,57S84.3,58.9,84.3,61.3z"/>
<circle class="st3" cx="100.9" cy="61.3" r="4.3"/>
<circle class="st3" cx="113.2" cy="61.3" r="4.3"/>
<circle class="st4" cx="161.5" cy="14.1" r="3.3"/>
<circle class="st4" cx="161.5" cy="26" r="3.2"/>
<circle class="st4" cx="161.5" cy="37.8" r="3.2"/>
<circle class="st4" cx="161.5" cy="49.6" r="3.2"/>
<circle class="st4" cx="161.5" cy="61.5" r="3.2"/>
<circle class="st4" cx="161.5" cy="73.3" r="3.2"/>
<circle class="st4" cx="161.5" cy="85.1" r="3.2"/>
<circle class="st4" cx="161.5" cy="97" r="3.2"/>
<circle class="st4" cx="161.5" cy="108.8" r="3.2"/>
<path class="st4" d="M196.6,138.7h-3.4l7.9-21.1h4l8,21.1h-3.5l-2-5.4h-9L196.6,138.7L196.6,138.7z M206.4,130.2l-3.4-9.2l-3.4,9.2
	H206.4L206.4,130.2z"/>
<path class="st4" d="M217.4,124.7v1c1-1,2.1-1.4,3.6-1.4c2.1,0,4,1.1,5,2.8c0.6,1,0.9,2.3,0.9,4.1v7.6h-3.2v-7.3
	c0-1.5-0.1-2.3-0.5-3c-0.4-0.8-1.3-1.2-2.5-1.2s-2.3,0.5-2.7,1.4c-0.4,0.7-0.5,1.5-0.5,3.1v7h-3.2v-14L217.4,124.7L217.4,124.7z"/>
<path class="st4" d="M238.9,138.7h-3.4l7.9-21.1h4l8,21.1h-3.5l-2-5.4h-9L238.9,138.7L238.9,138.7z M248.7,130.2l-3.4-9.2l-3.4,9.2
	H248.7L248.7,130.2z"/>
<path class="st4" d="M266.3,122.7c-1.2-1.9-2.1-2.5-3.6-2.5c-1.8,0-3.2,1.3-3.2,2.9c0,1.1,0.9,2,2.7,2.7l2,0.8
	c3.5,1.3,5.1,3.2,5.1,5.8c0,3.7-3.1,6.6-7,6.6c-2.2,0-4.1-0.9-5.4-2.5c-0.8-1-1.2-1.9-1.6-3.6l3.2-0.9l0.1,0.5
	c0.6,2.3,1.7,3.4,3.6,3.4c2,0,3.6-1.6,3.6-3.5c0-1.4-0.9-2.2-3.2-3.1l-1.9-0.7c-3.1-1.2-4.5-3-4.5-5.5c0-3.4,2.8-6,6.5-6
	c2.7,0,4.5,1.1,6.2,3.8L266.3,122.7L266.3,122.7z"/>
<path class="st4" d="M275.5,117.6v8.9h9.3v-8.9h3.3v21.1h-3.3v-9.2h-9.3v9.2h-3.3v-21.1C272.2,117.6,275.5,117.6,275.5,117.6z"/>
<path class="st4" d="M293.1,138.7h-3.4l7.9-21.1h4l8,21.1h-3.5l-2-5.4h-9L293.1,138.7L293.1,138.7z M303,130.2l-3.4-9.2l-3.4,9.2
	H303z"/>
<path class="st4" d="M322,138.7h-3.3v-21.1h3.3V138.7z"/>
<path class="st4" d="M328.6,124.7v1c1-1,2.1-1.4,3.6-1.4c2,0,4,1.1,5,2.8c0.6,1,0.9,2.3,0.9,4.1v7.6h-3.2v-7.3c0-1.5-0.1-2.3-0.5-3
	c-0.4-0.8-1.3-1.2-2.5-1.2s-2.3,0.5-2.7,1.4c-0.4,0.7-0.5,1.5-0.5,3.1v7h-3.2v-14L328.6,124.7L328.6,124.7z"/>
<path class="st4" d="M344.3,120c0,1.1-0.9,2-2,2c-1.2,0-2-0.9-2-2.1c0-1.1,0.9-2,2-2S344.3,118.8,344.3,120z M343.9,138.7h-3.2v-14
	h3.2V138.7z"/>
<path class="st4" d="M352.2,127.5h-2.2v6.7c0,1.2,0.3,1.7,0.9,1.7c0.4,0,0.7-0.1,1.5-0.3v2.9c-0.8,0.2-1.4,0.3-1.9,0.3
	c-2.3,0-3.7-1.7-3.7-4.7v-6.7h-1.5v-2.8h1.5v-3.1l3.2-1.3v4.4h2.2L352.2,127.5L352.2,127.5z"/>
<path class="st4" d="M357.8,120c0,1.1-0.9,2-2,2c-1.2,0-2-0.9-2-2.1c0-1.1,0.9-2,2-2S357.8,118.8,357.8,120z M357.4,138.7h-3.2v-14
	h3.2V138.7z"/>
<path class="st4" d="M370.6,138.7v-1.2c-1.5,1.1-2.8,1.6-4.3,1.6c-3.9,0-7.1-3.4-7.1-7.4s3.2-7.4,7.1-7.4c1.5,0,2.8,0.5,4.3,1.6
	v-1.2h3.2v14L370.6,138.7L370.6,138.7z M362.4,131.6c0,2.8,1.7,4.6,4.2,4.6s4.1-1.9,4.1-4.6s-1.7-4.6-4-4.6
	C364.1,127.1,362.4,128.9,362.4,131.6z"/>
<path class="st4" d="M382.3,127.5h-2.2v6.7c0,1.2,0.3,1.7,0.9,1.7c0.4,0,0.7-0.1,1.5-0.3v2.9c-0.8,0.2-1.4,0.3-1.9,0.3
	c-2.3,0-3.7-1.7-3.7-4.7v-6.7h-1.5v-2.8h1.5v-3.1l3.2-1.3v4.4h2.2L382.3,127.5L382.3,127.5z"/>
<path class="st4" d="M387.9,120c0,1.1-0.9,2-2,2c-1.2,0-2-0.9-2-2.1c0-1.1,0.9-2,2-2S387.9,118.8,387.9,120z M387.4,138.7h-3.2v-14
	h3.2V138.7z"/>
<path class="st4" d="M391.9,124.7l4,9.6l4.1-9.6h3.4l-6,14h-2.9l-6-14L391.9,124.7L391.9,124.7z"/>
<path class="st4" d="M406.1,132.9c0.4,2.1,1.9,3.4,3.9,3.4c1.5,0,2.8-0.7,3.5-1.8c0,0,0.1-0.1,0.2-0.2c0-0.1,0.1-0.1,0.1-0.2
	l2.7,1.1c-1.6,2.6-3.7,4-6.5,4c-4.1,0-7.2-3.2-7.2-7.4s3.1-7.4,7-7.4s6.9,3.2,6.9,7.8v0.9L406.1,132.9L406.1,132.9z M413.6,130.5
	c-0.6-2.2-1.9-3.4-3.7-3.4c-1.9,0-3.3,1.3-3.8,3.4H413.6z"/>
<path class="st4" d="M208.5,53.9h29.2v-31h15.4V100h-15.4V68.2h-29.2V100h-15.4V22.9h15.4C208.5,22.9,208.5,53.9,208.5,53.9z"/>
<path class="st4" d="M296.9,100v-2.9c-4.6,3.5-8.2,4.7-13.3,4.7c-14.6,0-26.4-12.3-26.4-27.5s11.8-27.4,26.4-27.4
	c5.1,0,8.7,1.3,13.3,4.7v-2.9h14.8V100C311.7,100,296.9,100,296.9,100z M272.1,74.2c0,8.6,5.1,14.3,12.6,14.3s12.4-5.8,12.4-14
	s-5-14.3-12.1-14.3C277.2,60.2,272.1,65.8,272.1,74.2z"/>
<path class="st4" d="M343,79.1l12.6-30.3h15.9l-22,51.3h-13.1l-22-51.3h15.9L343,79.1L343,79.1z"/>
<path class="st4" d="M419.9,87.3c-6,9.8-14,14.6-24.3,14.6c-15.4,0-27-11.8-27-27.4s11.6-27.5,26.3-27.5s25.8,12,25.8,28.6
	c0,0.9,0,1.8-0.1,4.1h-36.8c2,6.2,5.7,9.3,11.7,9.3c5,0,8.7-2.2,11.5-6.6L419.9,87.3L419.9,87.3z M406,69.3
	c-2.1-6.5-5.5-9.4-11.1-9.4s-9.4,3.1-11.1,9.4H406L406,69.3z"/>
<path class="st4" d="M446.6,22.9h17.2L480,52.2l16.2-29.4h17.2l-25.8,45.2V100h-15.4V68.1C472.3,68.1,446.6,22.9,446.6,22.9z"/>
<path class="st4" d="M555.4,74.3c0,15.5-12,27.5-27.5,27.5s-27.6-12-27.6-27.8s12.1-27.2,28-27.2S555.4,59.2,555.4,74.3L555.4,74.3z
	 M515.1,74.3c0,8.4,5.1,14.2,12.7,14.2s12.6-5.8,12.6-14s-5.1-14.2-12.5-14.2S515.1,65.9,515.1,74.3L515.1,74.3z"/>
<path class="st4" d="M593.7,97.6c-3.8,3.1-7.1,4.3-11.7,4.3c-7.3,0-14.2-3.9-17.7-10.1c-2.2-3.8-3.2-8.7-3.2-15.4V48.8h14.8v26.8
	c0,9.6,2.1,12.8,8.3,12.8c3.5,0,6.6-1.5,7.9-3.8c1.2-2.1,1.6-4.7,1.6-10.1V48.8h14.8V100h-14.8V97.6L593.7,97.6z"/>
<path class="st4" d="M662.5,53.9h29.2v-31H707V100h-15.4V68.2h-29.2V100h-15.4V22.9h15.4C662.5,22.9,662.5,53.9,662.5,53.9z"/>
<path class="st4" d="M765.2,87.3c-6,9.8-14,14.6-24.3,14.6c-15.4,0-27-11.8-27-27.4s11.6-27.5,26.3-27.5S766,59,766,75.5
	c0,0.9,0,1.8-0.1,4.1h-36.8c2,6.2,5.7,9.3,11.7,9.3c5,0,8.7-2.2,11.5-6.6L765.2,87.3L765.2,87.3z M751.3,69.3
	c-2.1-6.5-5.5-9.4-11.1-9.4s-9.4,3.1-11.1,9.4H751.3L751.3,69.3z"/>
<path class="st4" d="M809,100v-2.9c-4.6,3.5-8.2,4.7-13.3,4.7c-14.6,0-26.4-12.3-26.4-27.5s11.8-27.4,26.4-27.4
	c5.1,0,8.7,1.3,13.3,4.7v-2.9h14.8V100C823.8,100,809,100,809,100z M784.2,74.2c0,8.6,5.1,14.3,12.6,14.3s12.4-5.8,12.4-14
	s-5-14.3-12.2-14.3C789.3,60.2,784.2,65.8,784.2,74.2L784.2,74.2z"/>
<path class="st4" d="M847.9,51.6c3.2-2.3,5.7-3.1,9.4-3.1c1.5,0,2.8,0.1,5.1,0.3V62c-2.8-0.2-3.7-0.2-5.1-0.2
	c-7.2,0-9.4,3.2-9.4,13.5v24.8H833V48.8h14.8V51.6L847.9,51.6z"/>
<path class="st4" d="M903.1,100v-2.9c-4.6,3.5-8.2,4.7-13.3,4.7c-14.6,0-26.4-12.3-26.4-27.5s11.8-27.4,26.4-27.4
	c5.1,0,8.6,1.3,13.3,4.7V22.9h14.8V100L903.1,100L903.1,100z M878.3,74.3c0,8.4,5.1,14.2,12.5,14.2s12.4-5.8,12.4-14
	s-4.9-14.2-12.2-14.2S878.3,65.9,878.3,74.3z"/>
<path class="st4" d="M937.8,72.2c0-7.5,1.5-10.9,7.4-15.6l4.6-3.9c3.9-3.2,5.7-6.2,5.7-9.7c0-4.6-3.2-7.5-8.7-7.5s-8,1.8-13,9.4
	l-11.3-9.1c5.8-10.1,13.2-14.6,24.2-14.6c14.3,0,24.1,8.9,24.1,21.9c0,7.6-2.7,12.7-10.1,19.5l-5.2,4.9c-1.2,1-2,2-2.2,2.3
	c-0.2,0.6-0.3,1.7-0.3,3.5v6.4h-15.2L937.8,72.2L937.8,72.2z M954.4,92.9c0,4.9-4,8.8-9,8.8s-9-3.9-9-8.9s4-8.7,9-8.7
	S954.4,88,954.4,92.9L954.4,92.9z"/>
</svg>
