<?xml version="1.0" encoding="utf-8"?>
<!-- Generator: Adobe Illustrator 27.7.0, SVG Export Plug-In . SVG Version: 6.00 Build 0)  -->
<svg version="1.1" id="Layer_1" xmlns="http://www.w3.org/2000/svg" xmlns:xlink="http://www.w3.org/1999/xlink" x="0px" y="0px"
	 viewBox="0 0 130 130" style="enable-background:new 0 0 130 130;" xml:space="preserve">
<style type="text/css">
	.st0{fill:url(#SVGID_1_);}
	.st1{fill:url(#SVGID_00000080204758692199380430000014488947139240211881_);}
	.st2{fill:url(#SVGID_00000006703929947820308400000017222208560785954453_);}
	.st3{fill:#FFFFFF;}
	.st4{fill:#63544F;}
	.st5{fill:url(#SVGID_00000114765330185235723980000017358089426467933631_);}
	.st6{fill:url(#SVGID_00000020390004561968769960000011083416940047637636_);}
	.st7{fill:url(#SVGID_00000049899933402238066540000001676638629268507037_);}
	.st8{fill:url(#SVGID_00000162313101575941761370000015547612898041218695_);}
	.st9{fill:url(#SVGID_00000142879497754431299300000005882023034315250328_);}
	.st10{fill:url(#SVGID_00000074413881857580091390000012673564398967509161_);}
</style>
<g>
	<radialGradient id="SVGID_1_" cx="5.2472" cy="31.547" r="69.2952" gradientUnits="userSpaceOnUse">
		<stop  offset="0" style="stop-color:#981E66"/>
		<stop  offset="0.3793" style="stop-color:#951E66"/>
		<stop  offset="0.6838" style="stop-color:#8B1E66"/>
		<stop  offset="0.9615" style="stop-color:#7A1E66"/>
		<stop  offset="1" style="stop-color:#771E66"/>
	</radialGradient>
	<path class="st0" d="M9.6,75.7C3.2,69-0.5,59.7,0.3,49.6c1.3-16.7,14.9-30.1,31.6-31.2C52.3,17,69.2,33.8,68.1,54.2
		C67.2,70.8,54,84.5,37.4,86.1c-4.2,0.4-8.3,0-12.1-1c-1.5-0.4-3.1-0.2-4.5,0.5l-7.8,4.2c-1.8,1-4-0.7-3.5-2.7l1.4-5.8
		C11.5,79.3,11,77.2,9.6,75.7z"/>
	
		<radialGradient id="SVGID_00000148634801668012026270000006062155451325589659_" cx="123.5777" cy="37.3905" r="98.8954" gradientUnits="userSpaceOnUse">
		<stop  offset="0" style="stop-color:#EC8A00"/>
		<stop  offset="0.3466" style="stop-color:#EC8700"/>
		<stop  offset="0.6249" style="stop-color:#EC7D00"/>
		<stop  offset="0.8786" style="stop-color:#EC6C00"/>
		<stop  offset="1" style="stop-color:#EC6100"/>
	</radialGradient>
	<path style="fill:url(#SVGID_00000148634801668012026270000006062155451325589659_);" d="M116.3,96.1c9.2-9.7,14.6-23.1,13.4-37.8
		c-1.9-24.2-21.5-43.6-45.7-45.2C54.4,11.2,30,35.5,31.6,65c1.3,24.1,20.4,43.9,44.4,46.2c6.1,0.6,12,0,17.5-1.5
		c2.2-0.6,4.5-0.4,6.5,0.7l11.2,6.1c2.7,1.4,5.8-1,5-3.9l-2.1-8.4C113.4,101.3,114.2,98.3,116.3,96.1z"/>
	
		<radialGradient id="SVGID_00000006688910988879314610000018214822281161479559_" cx="52.482" cy="22.2948" r="66.0863" gradientUnits="userSpaceOnUse">
		<stop  offset="0" style="stop-color:#00778A"/>
		<stop  offset="0.3841" style="stop-color:#00748A"/>
		<stop  offset="0.6922" style="stop-color:#006A8A"/>
		<stop  offset="0.9735" style="stop-color:#00598A"/>
		<stop  offset="1" style="stop-color:#00578A"/>
	</radialGradient>
	<path style="fill:url(#SVGID_00000006688910988879314610000018214822281161479559_);" d="M31.6,65c0.4,7.6,2.6,14.8,6.1,21.1
		c16.5-1.7,29.5-15.4,30.4-31.9c0.7-13.3-6.3-25.1-16.9-31.3C38.6,32.3,30.6,47.7,31.6,65z"/>
	<g>
		<path class="st3" d="M48.9,47h38.2c2.4,0,4.3-1.9,4.3-4.3c0-2.4-1.9-4.3-4.3-4.3H48.9c-2.4,0-4.3,1.9-4.3,4.3
			C44.6,45,46.5,47,48.9,47z"/>
		<path class="st3" d="M96.6,77.2H64.7c-2.4,0-4.3,1.9-4.3,4.3s1.9,4.3,4.3,4.3h31.9c2.4,0,4.3-1.9,4.3-4.3S99,77.2,96.6,77.2z"/>
		<circle class="st3" cx="35.6" cy="42.6" r="4.3"/>
		<circle class="st3" cx="31.5" cy="62.1" r="4.3"/>
		<circle class="st3" cx="19.2" cy="62.1" r="4.3"/>
		<circle class="st3" cx="43.8" cy="62.1" r="4.3"/>
		<circle class="st3" cx="66.7" cy="62.1" r="4.3"/>
		<circle class="st3" cx="51.4" cy="81.6" r="4.3"/>
		<path class="st3" d="M75.2,62.1c0,2.4,1.9,4.3,4.3,4.3c2.4,0,4.3-1.9,4.3-4.3c0-2.4-1.9-4.3-4.3-4.3
			C77.2,57.8,75.2,59.7,75.2,62.1z"/>
		<circle class="st3" cx="91.9" cy="62.1" r="4.3"/>
		<circle class="st3" cx="104.2" cy="62.1" r="4.3"/>
	</g>
</g>
</svg>
